<svg version="1.2" xmlns="http://www.w3.org/2000/svg" viewBox="0 0 210 630" width="210" height="630"><style>.a{fill:#fff}.b{fill:none}.c{fill:#39414d}.d{fill:#fdd302}.e{fill:#34404c}.f{fill:#f3f4f6}.g{fill:#37404e}.h{fill:#fbfcfc}.i{fill:#444b57}.j{fill:#f1f3f5}.k{fill:#3a4252}.l{fill:#185c02}.m{fill:#e4e6ed}.n{fill:#666973}.o{fill:#2f323a}.p{fill:#6c727c}.q{fill:#d8e1e2}.r{fill:#e8edef}.s{fill:#54c921}.t{fill:#28611d}.u{fill:#d9dfdd}.v{fill:#0d0d08}.w{fill:#efce12}.x{fill:#52b618}.y{fill:#63df00}.z{fill:#2b402a}.A{fill:#ecf3ec}.B{fill:#040805}.C{fill:#d2d5dc}.D{fill:#484b56}</style><path fill-rule="evenodd" class="a" d="m49.5 31.6v17.2q0 1-0.6 1.7-0.7 0.6-1.7 0.6h-24.4q-1 0-1.7-0.6-0.6-0.7-0.6-1.7v-17.3q0-1 0.6-1.6 0.7-0.6 1.7-0.6h2.6v-5.4q0-3.5 2.7-6.3 2.9-2.8 6.8-2.8 3.9 0 6.8 2.9 2.7 2.7 2.7 6.2v5.3l2.8 0.1q1-0.1 1.6 0.6 0.7 0.7 0.7 1.7zm-10.2-11.3q-1.8-1.9-4.4-1.9-2.6 0-4.4 1.9-1.6 1.7-1.6 3.7v5.4h12v-5.5q0-1.9-1.6-3.6z"/><path class="a" d="m30.3 588l-5.3-5.2-0.3-9q0-0.5-0.3-0.8-0.4-0.4-0.9-0.5-0.5 0-1 0.4-0.3 0.4-0.3 0.9l-0.2 9-5.3 5.2v24.5h13.5z"/><path fill-rule="evenodd" class="a" d="m54.2 591v21.5h-19.5v-40h13.7l-0.2 12.6zm-9.2-8.4v-6.8h-6.8v6.8z"/><path class="a" d="m83.2 581.1q-0.8 0.2-0.5 1.1l4 16.5q-4 0.9-5.4 3.5 2.7 1.8 6.5 0.8l0.9 3.5 8.1-1-1.6 7q0.1 0.6 0.5 0.6l11-2.4q0.7-0.1 0.8-0.9l3-6.3 3.2-0.8q3.8-1 7.2-2.2 5.1-1.9 8.4-4.4l2.4-2.1-0.9-3q-2.1-0.5-5.3-0.9-6.4-0.6-12.1 0.4l-17.7 2.9q-10.7-11.2-11.2-11.8-0.7-0.7-1.3-0.5z"/><path class="a" d="m109.3 582.9q-2.1-1.3-4.4-1.3-3 0-5.2 2-2.1 2-2.7 5l15.4-2.5q-1.1-2-3.1-3.2z"/><path class="a" d="m186.7 607.3l-12.3-33.5-22.4 33.5z"/><path class="a" d="m191.5 607.4h7.5l-17.7-27.9z"/><path fill-rule="evenodd" class="b" d="m0 70v70h70v-70z"/><path class="c" d="m47.6 121.8q-0.3 0.6-0.6 1.2-1 1.8-2.2 3.4v1h1.8v-0.5q0-0.5 0.1-0.9 0.4-2.2 0.9-4.2z"/><path class="d" d="m57.4 126.8v-6.4q-1 0.4-2.1 0.8-1.4 0.6-3.1 1.2-0.5 0.6-1.1 1.1-1.6 1.5-3 2.9v1zm-1.5-14.7q0.8 0.4 1.5 0.8v-1.9q-1.8-1.2-3.8-1.1-0.2-0.2-0.4-0.4 0-0.1 0-0.2v-0.6h-1.2q0 0.5-0.1 0.9-0.2 0.8-1.1 0.9v1h0.5v-0.5q2.4 0.2 4.6 1.1z"/><path class="e" d="m18.7 122.3q0-0.5-0.4-0.3-0.3 0-0.5 0.3v5.1h0.9z"/><path class="f" d="m22.4 123.6q0.1 0.1 0.3 0 0 0 0 0 0.1-0.1 0.1-0.2 0-0.1 0.1-0.2 0-0.7-0.5-0.8-1.9-0.6-3.7-0.1v5.1h4.7q-0.6-1.4-0.8-2.8-0.1-0.5-0.2-1z"/><path class="g" d="m24.8 121.8q-0.5 0.3-0.9 0.6-0.5 0.4-1 0.8-0.1 0.1-0.2 0.2 0 0.1 0 0.1 0 0.1 0 0.1-0.2 0.1-0.3 0 0.1 0.5 0.2 1 0.2 1.4 0.8 2.8h0.8l-0.3-3.6q0.4-1 0.8-2z"/><path class="h" d="m38.3 118h-0.5q-0.2 0.3-0.4 0.5-1.5 1.8-3.5 3h-0.8q-1.1 0.7-2.4 1-2.6-0.4-4.1 1.6 0 0.4 0.1 0.9 0 1.3 0.4 2.4h9.8v-1.4q1-1.5 1.2-3.5 0.1-0.9 0.3-1.6 0.3-1.5-0.1-2.9z"/><path class="i" d="m39.6 118.5l-0.3-0.6-1.1-0.3v0.4q0.5 1.4 0.2 2.9-0.2 0.7-0.3 1.6-0.2 2-1.3 3.5l0.1 1.4h0.9q0.3-2.4 0.9-4.7 0.3-0.9 0.4-1.9 0.1-1.1 0.5-2.3z"/><path class="j" d="m36.4 115.3q-0.4 0.8-0.8 1.6-0.9 1.9-3 2.7-2.1 0.8-4.3 0.9-2 0.2-4-0.6h-5.6v0.5q-1 1.2-1.8 2.5-1.3 1.9-2.4 4v0.5h3.3v-5.1q0.2-0.3 0.5-0.3 0.4-0.2 0.4 0.3 1.8-0.5 3.7 0 0.5 0.2 0.5 0.9 0.5-0.4 1-0.8 0.4-0.3 0.9-0.6-0.5 1-0.9 2l0.4 3.6h2.8q-0.4-1.1-0.4-2.4-0.1-0.5-0.1-0.9 1.4-2 4.1-1.6 1.3-0.3 2.4-1h0.8q2-1.2 3.5-3 0.2-0.2 0.4-0.5-0.2-0.1-0.2-0.4-0.3-1.2-0.4-2.5zm-20.7-5q-0.1-0.3-0.3-0.6v7.5q1.1 0.9 2.3 1.4 0.2-0.1 0.4 0 0.7-0.3 0.9-1.2 0.1-0.8 0.2-1.6 0.6 1.1 0.9 2.3 0.5 1.3 1.9 1.3 1.4-0.1 2.7-0.4l0.6 0.5h2.3q1.6 0.3 3.1 0.3 0.5-0.1 1-0.2 0.3-0.3 0.4-0.6 0-0.5 0.1-1 0.1-0.6 0.1-1.2 0.2 0.3 0.4 0.6 0.3 0.4 0.6 0.8 0 0.1 0.2 0.1 1-0.8 1.7-1.8 0.6-0.8 1.2-1.6v-0.5l1.8-2.8-0.4-0.9q-0.2-0.1-0.4-0.2-0.3-0.1-0.6-0.1l-0.4-0.7h-0.9l-0.5-0.4-1.6-0.2q-0.5 0.6-1 1.4-1.1 1.7-2.8 2.8 0.2-0.4 0.4-0.8 1.1-1.6 2.2-3.2l-0.9-0.5q-0.1-0.1-0.1-0.2 0-0.2 0.1-0.3-2.2-1.5-4.7-1.5-2.1-0.4-4.2-0.3 0.5 0.4 1 0.9l-0.7 0.7q0.4 0.1 0.9 0.2 0.4 0.1 0.8 0.3 0.3 0.2 0.6 0.4l-4.9 0.3v1.4l4.2 0.4q1.8-0.1 3.5-0.2v0.1q-0.6 0.5-1.6 0.9-1.2 0.7-2.6 1.1-2.2 0.7-4.2 0.3-0.8-0.2-1.6-0.5-1.7-0.7-2.1-2.5zm34.2 5.2q-0.8 2.2-2.5 3.7-1.8 1.5-4 1.6-2.3-0.2-3.7-2.2-0.5 1.2-0.6 2.3-0.1 0.9-0.4 1.9-0.6 2.3-0.9 4.7h7v-1q1.2-1.7 2.2-3.4 0.3-0.6 0.6-1.2-0.5 2-0.9 4.2-0.1 0.4 0 0.9v-0.5q1.3-1.8 2.9-3.4 0.7-0.8 1.6-1.5 1.3-0.8 2.3-1.8-0.3-1.6-1.3-2.7-0.4-0.4-0.4-0.9 0.1-2.4-0.4-4.6h-0.5q-0.2 0.9-0.4 1.9-0.2 1-0.6 2z"/><path class="k" d="m27.6 119.4q-0.2 0.2-0.4 0.1-1.4 0.5-3 0.4 2.1 0.8 4.1 0.6 2.2-0.1 4.3-0.9 2.1-0.8 3-2.7 0.4-0.8 0.8-1.7v-0.4q-0.6 0.8-1.2 1.6-0.7 1-1.7 1.8-0.2 0-0.2-0.1-0.3-0.4-0.6-0.8-0.2-0.3-0.4-0.6-0.1 0.6-0.1 1.2-0.1 0.5-0.1 1-0.1 0.3-0.5 0.6-0.5 0.1-0.9 0.2-1.6 0-3.2-0.3z"/><path class="l" d="m39.1 100.7v-0.1q-0.1 0.8 0 1.6-0.8 1.3-1.5 2.6-0.9 2.2-2.6 3.9v0.5l0.5 0.4h0.9q0.1-0.6 0.3-1.1 0.6-1.9 2-3.7 1.6-2.1 0.4-4.1z"/><path class="m" d="m18.8 112.3q0.4 0.1 0.9 0.2 2-0.2 3.9-0.4l-0.7-0.6h-2.4-3.7q0.9 0.4 1.9 0.8z"/><path class="n" d="m15.4 109.6q0.2 0.3 0.3 0.7 0.4 1.7 2.1 2.4 0.8 0.3 1.6 0.5 2 0.4 4.2-0.3 1.4-0.4 2.6-1.1 0.9-0.4 1.6-0.9-1.8 0-3.6 0.2 0 0 0 0-0.7 0.3-1.3 0.5l0.6 0.5q-1.8 0.2-3.8 0.4-0.5-0.1-1-0.2-1-0.4-1.9-0.7h3.7q-0.2-0.2-0.4-0.3-1.9 0.2-3.4-0.5l-0.3-0.7-0.2-0.9h-0.8-0.5q0.2 2 0.1 4 0 2.1 0.4 3.9z"/><path class="o" d="m18.7 110.6q-0.3 0-0.5 0-1.1 0.2-1.8-0.5l0.3 0.7q1.6 0.7 3.4 0.5 0.2 0.1 0.5 0.3h2.3q0.6-0.2 1.3-0.5 0 0 0.1 0l-4.2-0.5z"/><path class="p" d="m19.1 110.1q-0.3 0.3-0.4 0.5h1.3v-1.4l5-0.3q-0.3-0.1-0.7-0.3-0.3-0.3-0.8-0.4-0.4-0.1-0.8-0.1l0.7-0.8h-3.4l-0.4 0.5q-0.6 0.2-1.2 0.3-0.6 0.2-1.2 0.2 1.2 0.3 1.8 1 0.2 0.1 0.5 0.3-0.3 0.3-0.5 0.5z"/><path class="q" d="m19.6 105.9q0 0.4 0.1 0.8 0.1 0.4 0.3 0.6h3.4q-0.5-0.5-1-0.9v-0.5l-1.5-0.5z"/><path class="r" d="m16.8 106.4h-1.4v2.8h0.8l0.2 0.9q0.7 0.7 1.8 0.5 0.2 0 0.5 0 0.2-0.2 0.3-0.5 0.2-0.2 0.5-0.5-0.3-0.2-0.5-0.4-0.6-0.6-1.8-1 0.7 0 1.2-0.2 0.6 0 1.2-0.2-0.6 0-1-0.4-0.4-0.4-0.4-1z"/><path class="s" d="m16.7 106.3q0.1 0 0.1 0.1h1.4l0.5-0.3-1.1-0.4 1.2 0.1 0.9-0.9q0.1-0.7 0.3-1.6-0.3 0-0.6 0.1-2.1-0.1-4-0.8-0.1 2.1 1.3 3.7z"/><path class="t" d="m15.9 100.8h-0.5v1.8q1.9 0.7 4 0.8 0.3-0.1 0.6-0.1-0.2 0.9-0.3 1.6l-0.9 0.9-1.2-0.1 1.1 0.3-0.5 0.4q0 0.6 0.4 1 0.4 0.4 1 0.4l0.5-0.5q-0.2-0.2-0.4-0.5-0.1-0.5-0.1-0.9l1.3-0.5 1.5 0.5q0.3-0.1 0.7-0.2l-0.9-0.5q-0.3 0-0.5 0.1-0.6-0.1-1-0.8 1.6-1.7 1.3-4-0.1 0.3-0.3 0.6-0.1 0.7-0.2 1.2-0.3 0.1-0.5 0.3-0.2 0-0.3 0l-0.6-0.4q-0.6 0.2-1.2 0.2-1.4 0.5-2.7-0.2z"/><path class="u" d="m17.3 101.3l-0.4-1.2-1-0.3v1l0.3 1.4q1.3 0.7 2.7 0.2 0.6 0 1.1-0.2l0.7-0.9-0.2-1q-0.3-0.3-0.5-0.5-0.9 0-1.8 0l-0.1 1.3z"/><path class="v" d="m57.4 112.9q-0.6-0.3-1.5-0.8-2.2-0.9-4.5-1.1v0.5q0.5 2.2 0.4 4.6 0 0.6 0.4 0.9 1 1.1 1.3 2.7-1 1-2.3 1.8-0.9 0.7-1.6 1.5-1.7 1.6-3 3.4v0.5 0.5h1.5v-1q1.4-1.4 3-2.9 0.5-0.5 1-1.1 1.8-0.6 3.2-1.2 1.1-0.4 2.1-0.8z"/><path class="w" d="m57.4 111l-0.1-2.7-4.1 0.5v0.5q0 0.2 0.1 0.3 0.1 0.2 0.3 0.4 2-0.1 3.8 1z"/><path fill-rule="evenodd" class="x" d="m41.7 98.2q-0.1 0.7-0.2 1.4 0 0.3-0.2 0.6-0.5 2.3-1.2 4.5-0.4 1-0.7 2.1-0.2 0.9-0.4 1.9-0.1 0.5-0.1 1 0 0.1 0 0.2-0.5 0.4-1.1 0.7-0.2-0.1-0.4-0.2-0.3-0.1-0.7-0.1l-0.3-0.7q0.1-0.6 0.3-1.1 0.6-1.9 2-3.7 1.6-2.1 0.4-4.1v-0.1q-0.1 0.8 0 1.6-0.8 1.3-1.5 2.6-0.9 2.2-2.6 3.9v0.5l-1.6-0.2q-0.6 0.6-1 1.4-1.1 1.7-2.8 2.8 0.1-0.4 0.4-0.8 1.1-1.6 2.2-3.2l-0.9-0.5q-0.1-0.1-0.1-0.2 0-0.2 0-0.3-2.1-1.5-4.6-1.5-2.1-0.4-4.2-0.3v-0.5q0.3-0.1 0.6-0.2l-0.9-0.5q-0.2 0-0.4 0-0.7 0-1.1-0.7 1.7-1.7 1.3-4-0.1 0.3-0.2 0.6-0.1 0.7-0.3 1.2-0.2 0.1-0.5 0.3-0.1 0-0.2 0l-0.7-0.4 0.7-0.9-0.2-1.1q-0.3-0.2-0.6-0.4-0.8 0-1.7 0 1.1-0.5 1.9-0.8 0.2-0.1 0.3-0.2 0.4-0.5-0.7-0.6-1.1-0.1-2.2-0.3l5.3 0.2 0.4-0.3q0.6-1.5 0.1-3-2.2-1.2-4.7-0.2-0.5 0.1-1 0.2-0.9 0.1-0.9-0.9 0-0.7 0.1-1.5 2.3-1.6 5-1.1v0.1q-0.6 0.1-1.3 0.3 1.2 0.2 2.5 0.5-0.1 0.1-0.3 0.3-0.6 0.4-1.4 0.8 1.2 0.5 2.4 0.4 0.8 0.2 1.4 0.6 0.5 0.3 0.9 0.8-0.1 0.1-0.2 0.2-0.2 0.2-0.4 0.4-0.3 0.1-0.4 0.3-0.4 0.7-0.3 1.7 0 0.3 0 0.6l0.8 0.4 0.1 0.7q1.1-0.3 2.2-0.7 1.5-0.2 3 0 0.8 0 1.7 0 0.2 0 0.6 0 2.3 0.2 4.5 0.9-0.4-1.7-1.8-2.8-0.6-0.6-1.2-1.2-0.4-0.3-0.8-0.7 4 0 7.4-2.5 0.4-0.2 0.8-0.5 0.2 3.1-0.3 6.3zm-11.7 1.2q-2.7 0.1-5.3 0.9v0.5q0.1 0.6-0.5 0.4-0.2 0-0.4 0-0.3 2.2 1.9 2.9 2.5 0.9 4.9-0.2 1.7-0.9 2.2-2.7l-0.6-0.9q-0.6-0.9-2.2-0.9zm3.2 6.7q0.2 0.6 1.2 0.2 1.7-0.5 2-2.3-1 0.3-1.8 0.1-0.2-0.1-0.5-0.1 0 0.2 0 0.5 0 0.2-0.1 0.4l-0.9 0.1q0 0.3 0 0.7 0 0.2 0.1 0.4z"/><path class="y" d="m33.1 105q0 0.3 0 0.8 0 0.1 0.1 0.3 0.3 0.6 1.3 0.2 1.6-0.5 1.9-2.3-0.9 0.3-1.8 0.1-0.2-0.1-0.5-0.1 0 0.2 0 0.5 0 0.2-0.1 0.4z"/><path class="z" d="m32.2 100.3q-0.6-0.9-2.2-0.9-2.7 0.1-5.3 0.9v0.5l0.7 0.5 0.2 1.3q0.2-0.1 0.5-0.1 0.3-0.1 0.6-0.2 0.1-0.2 0.3-0.3 0.1-0.3 0.1-0.5 0-0.6-0.1-1.2z"/><path class="A" d="m32.9 101.2l-0.7-0.9h-5.1q0 0.6 0 1.2 0 0.2-0.1 0.5-0.1 0.1-0.2 0.2-0.4 0.2-0.7 0.3-0.2 0-0.4 0.1l-0.3-1.3-0.6-0.5q0.1 0.6-0.5 0.4-0.3 0-0.5 0-0.3 2.2 1.9 2.9 2.6 0.9 5-0.2 1.7-0.9 2.2-2.7z"/><path fill-rule="evenodd" class="B" d="m33.9 94.9q0.3 0.4 0.7 0.7 0.6 0.6 1.3 1.2 1.3 1.1 1.7 2.8-2.2-0.7-4.5-0.9-0.3 0-0.6 0-0.8 0-1.6 0-1.6-0.2-3.1 0-1.1 0.4-2.1 0.7l-0.2-0.7-0.7-0.4q0-0.3-0.1-0.6-0.1-1 0.3-1.7 0.2-0.2 0.4-0.3 0.2-0.2 0.4-0.4 0.1-0.1 0.2-0.2-0.4-0.5-0.8-0.8-0.7-0.4-1.5-0.6-1.2 0.1-2.3-0.4 0.7-0.4 1.4-0.8 0.1-0.2 0.3-0.3-1.3-0.3-2.6-0.5 0.7-0.2 1.4-0.3v-0.1q-2.8-0.5-5.1 1.1 0 0.8 0 1.5 0 1 0.8 0.9 0.5-0.1 1-0.2 2.5-1 4.8 0.2 0.4 1.5-0.2 3l-0.4 0.3-5.3-0.2q1.1 0.2 2.2 0.3 1.2 0.1 0.8 0.6-0.2 0.1-0.4 0.2-0.8 0.3-1.9 0.8l-0.1 1.3-0.8 0.1-0.4-1.1-1-0.3v1h-0.5v1.8q-0.1 2.1 1.3 3.7 0.1 0 0.1 0.1h-1.4v2.8h-0.4q0.1 2 0 4 0 2 0.4 3.9 1.1 0.9 2.3 1.4 0.2-0.1 0.4 0 0.7-0.3 0.9-1.2 0.1-0.8 0.2-1.6 0.6 1.1 0.9 2.3 0.5 1.3 1.9 1.3 1.4-0.1 2.7-0.4l0.6 0.5h2.3q-0.2 0.2-0.3 0.1-1.4 0.5-3 0.4h-5.6v0.5q-1 1.2-1.8 2.5-1.3 1.9-2.4 4v0.5h-1.3q-0.4-2-0.4-3.8 0-1.8 0-3.7 0.1 1.5 0.7-3.8v-3.7q0.6-1.7 0.5-3.5-0.1-2.2 0.1-4.6 0.2-2.3 1.2-4.5 0.9-2.2 1.1-4.6 0.1-1.7-0.3-3.3-0.3-1.3-1.3-2.1-0.5-0.4-1.1-0.8-0.6-0.4-1.1-0.8v-0.5q1.5 0.6 2.9-0.3 0.7-0.5 1.2-1.3 0.9-1.8 1.5-3.5h34.1q0.3 1.8 1.2 3.3 1 1.8 1.3 3.9 0.3 2 0.1 4.2-0.2 1.5-0.7 2.6-1.1 2.4-1 5.1 0.2 2.2-0.5 4.2h-0.5q0 0.8-0.1 1.4 0 0.7 0 1.4-0.1 0.5-0.2 1-0.2 0.8-1 0.9v0.9q-0.2 0.9-0.4 1.9-0.2 1-0.6 2-0.9 2.3-2.5 3.7-1.8 1.5-4 1.6-2.4-0.2-3.8-2.2l-0.3-0.6-1.1-0.3v0.4h-0.4q-0.2-0.1-0.2-0.4-0.4-1.2-0.4-2.5l-0.8 0.1v-0.9l1.8-2.8-0.4-0.9q0.6-0.3 1.1-0.7 0.1-0.1 0.1-0.2-0.1-0.5 0-1 0.2-1 0.4-1.9 0.3-1.1 0.7-2.1 0.8-2.2 1.3-4.5 0.1-0.3 0.1-0.6 0.1-0.7 0.2-1.4 0.5-3.2 0.3-6.3-0.4 0.3-0.8 0.5-3.4 2.5-7.3 2.5zm-21.2 24.5v-0.4q0.1 0.5 0.1 0.9 0-0.2-0.1-0.5zm32.3-16.1q-0.6 2.3-2 4 0 1 0.1 1.9 0.2 1 0.8 1.3h0.9q0.9-0.5 1.5-1.3 2.2-2.8 2.2-6.6 0-1.4-1.4-1.6-1.6 0.6-2.1 2.3z"/><path fill-rule="evenodd" class="C" d="m46.3 109.3q-0.6 0.7-1.5 1.3l-0.9-0.1q-0.6-0.3-0.8-1.2-0.1-1-0.1-2 1.4-1.7 2-4 0.5-1.7 2.2-2.3 1.3 0.2 1.3 1.6 0 3.9-2.2 6.7zm0.1-4.2q-0.3 2.5-2.5 3.7 0 0.1 0.2 0.2 0.7 0.3 1.5-0.7 1.7-2.8 1.9-5.8l-0.8-0.2q-0.1 1.3-0.3 2.8z"/><path class="D" d="m47.5 102.5l-0.9-0.3q-0.1 1.4-0.2 2.9-0.3 2.5-2.5 3.6 0 0.2 0.2 0.3 0.7 0.3 1.5-0.8 1.7-2.7 1.9-5.7z"/><path class="c" d="m117.6 121.8q-0.3 0.6-0.6 1.2-1 1.8-2.2 3.4v1h1.9v-0.5q-0.1-0.5 0-0.9 0.4-2.2 0.9-4.2z"/><path class="d" d="m127.4 126.8v-6.4q-1 0.4-2.1 0.8-1.4 0.6-3.1 1.2-0.5 0.6-1.1 1.1-1.6 1.5-3 2.9v1zm-1.5-14.7q0.8 0.4 1.5 0.8v-1.9q-1.8-1.2-3.8-1.1-0.3-0.2-0.4-0.4 0-0.1 0-0.2v-0.6h-1.2q0 0.5-0.1 0.9-0.2 0.8-1.1 0.9v1h0.5v-0.5q2.4 0.2 4.6 1.1z"/><path class="e" d="m88.7 122.3q0-0.5-0.4-0.3-0.3 0-0.6 0.3v5.1h1z"/><path class="f" d="m92.4 123.6q0.1 0.1 0.3 0 0 0 0 0 0-0.1 0-0.2 0.1-0.1 0.1-0.2 0.1-0.7-0.4-0.8-1.9-0.6-3.8-0.1v5.1h4.7q-0.5-1.4-0.7-2.8-0.1-0.5-0.2-1z"/><path class="g" d="m94.8 121.8q-0.5 0.3-1 0.6-0.4 0.4-1 0.8 0 0.1 0 0.2 0 0.1-0.1 0.1 0 0.1 0 0.1-0.2 0.1-0.3 0 0.1 0.5 0.2 1 0.2 1.4 0.7 2.8h1l-0.5-3.6q0.5-1 1-2z"/><path class="h" d="m108.3 118h-0.5q-0.2 0.3-0.5 0.5-1.4 1.8-3.5 3h-0.7q-1.1 0.7-2.4 1-2.6-0.4-4.1 1.6 0 0.4 0.1 0.9 0 1.3 0.3 2.4h9.8v-1.4q1.1-1.5 1.3-3.5 0-0.9 0.2-1.6 0.4-1.5 0-2.9z"/><path class="i" d="m109.7 118.5l-0.4-0.6-1.1-0.3v0.4q0.5 1.4 0.1 2.9-0.2 0.7-0.2 1.6-0.2 2-1.3 3.5v1.4h1q0.4-2.4 0.9-4.7 0.3-0.9 0.4-1.9 0.1-1.1 0.6-2.3z"/><path class="j" d="m106.4 115.3q-0.4 0.8-0.8 1.6-0.9 1.9-3 2.7-2.2 0.8-4.3 0.9-2 0.2-4.1-0.6h-5.6v0.5q-0.9 1.2-1.8 2.5-1.2 1.9-2.4 4v0.5h3.3v-5.1q0.3-0.3 0.6-0.3 0.3-0.2 0.3 0.3 1.9-0.5 3.8 0 0.5 0.2 0.4 0.9 0.6-0.4 1-0.8 0.5-0.3 0.9-0.6-0.4 1-0.9 2l0.4 3.6h2.8q-0.3-1.1-0.4-2.4 0-0.5 0-0.9 1.5-2 4.1-1.6 1.2-0.3 2.4-1h0.7q2.1-1.2 3.5-3 0.3-0.2 0.5-0.5-0.2-0.1-0.2-0.4-0.4-1.2-0.4-2.5zm-20.8-5q-0.1-0.3-0.2-0.6v7.5q1 0.9 2.2 1.4 0.2-0.1 0.4 0 0.8-0.3 0.9-1.2 0.2-0.8 0.2-1.6 0.6 1.1 1 2.3 0.5 1.3 1.8 1.3 1.5-0.1 2.7-0.4l0.7 0.5h2.2q1.6 0.3 3.1 0.3 0.5-0.1 1-0.2 0.4-0.3 0.5-0.6 0-0.5 0.1-1 0-0.6 0.1-1.2 0.2 0.3 0.4 0.6 0.3 0.4 0.6 0.8 0.1 0.1 0.2 0.1 1-0.8 1.7-1.8 0.6-0.8 1.2-1.6v-0.5l1.8-2.8-0.4-0.9q-0.2-0.1-0.4-0.2-0.3-0.1-0.7-0.1l-0.3-0.7h-1l-0.4-0.4-1.6-0.2q-0.5 0.6-1 1.4-1.1 1.7-2.8 2.8 0.1-0.4 0.4-0.8 1.1-1.6 2.2-3.2l-0.9-0.5q-0.1-0.1-0.1-0.2 0-0.2 0-0.3-2.1-1.5-4.6-1.5-2.1-0.4-4.2-0.3 0.5 0.4 1 0.9h-0.1l-0.7 0.7q0.5 0.1 0.9 0.2 0.4 0.1 0.8 0.3 0.3 0.2 0.6 0.4l-4.9 0.3v1.4l4.2 0.4q1.8-0.1 3.6-0.2v0.1q-0.7 0.5-1.6 0.9-1.2 0.7-2.6 1.1-2.2 0.7-4.3 0.3-0.8-0.2-1.5-0.5-1.7-0.7-2.2-2.5zm34.3 5.2q-0.9 2.2-2.5 3.7-1.8 1.5-4 1.6-2.4-0.2-3.8-2.2-0.4 1.2-0.5 2.3-0.2 0.9-0.4 1.9-0.6 2.3-0.9 4.7h7v-1q1.2-1.7 2.2-3.4 0.3-0.6 0.6-1.2-0.5 2-0.9 4.2-0.1 0.4-0.1 0.9v-0.5q1.3-1.8 3-3.4 0.7-0.8 1.6-1.5 1.3-0.8 2.3-1.8-0.3-1.6-1.3-2.7-0.4-0.4-0.4-0.9 0.1-2.4-0.5-4.6h-0.5q-0.1 0.9-0.3 1.9-0.2 1-0.6 2z"/><path class="k" d="m97.5 119.4q-0.1 0.2-0.3 0.1-1.4 0.5-3 0.4 2.1 0.8 4.1 0.6 2.2-0.1 4.3-0.9 2.1-0.8 3-2.7 0.4-0.8 0.8-1.7v-0.4q-0.6 0.8-1.2 1.6-0.7 1-1.7 1.8-0.1 0-0.2-0.1-0.3-0.4-0.6-0.8-0.2-0.3-0.4-0.6 0 0.6-0.1 1.2 0 0.5-0.1 1-0.1 0.3-0.4 0.6-0.6 0.1-1 0.2-1.5 0-3.2-0.3z"/><path class="l" d="m109.2 100.7l-0.1-0.1q0 0.8 0.1 1.6-0.9 1.3-1.5 2.6-1.1 2.2-2.7 3.9v0.5l0.5 0.4h0.9q0.1-0.6 0.3-1.1 0.6-1.9 2-3.7 1.6-2.1 0.5-4.1z"/><path class="m" d="m88.8 112.3q0.4 0.1 1 0.2 1.9-0.2 3.8-0.4l-0.8-0.6h-2.3-3.7q1 0.4 2 0.8z"/><path class="n" d="m85.4 109.6q0.1 0.3 0.3 0.7 0.4 1.7 2.1 2.4 0.7 0.3 1.5 0.5 2.1 0.4 4.3-0.3 1.4-0.4 2.6-1.1 0.9-0.4 1.6-0.9-1.8 0-3.6 0.2 0 0 0 0-0.7 0.3-1.4 0.5l0.7 0.5q-1.9 0.2-3.8 0.4-0.5-0.1-1-0.2-1-0.4-1.9-0.7h3.7q-0.2-0.2-0.4-0.3-1.9 0.2-3.4-0.5l-0.4-0.7-0.2-0.9h-0.7-0.5q0.2 2 0.1 4-0.1 2.1 0.4 3.9z"/><path class="o" d="m88.7 110.6q-0.3 0-0.5 0-1.1 0.2-1.9-0.5l0.4 0.7q1.5 0.7 3.4 0.5 0.2 0.1 0.4 0.3h2.3q0.7-0.2 1.4-0.5 0 0 0 0l-4.2-0.5z"/><path class="p" d="m89 110.1q-0.2 0.3-0.3 0.5h1.3v-1.4l5-0.3q-0.3-0.1-0.7-0.3-0.4-0.3-0.8-0.4-0.4-0.1-0.8-0.1l0.6-0.8h-3.3l-0.4 0.5q-0.6 0.2-1.2 0.3-0.5 0.2-1.2 0.2 1.2 0.3 1.8 1 0.2 0.1 0.5 0.3-0.3 0.3-0.5 0.5z"/><path class="q" d="m89.6 105.9q0.1 0.4 0.2 0.8 0 0.4 0.3 0.6h3.3q-0.5-0.5-1-0.9v-0.5l-1.5-0.5z"/><path class="r" d="m86.8 106.4h-1.4v2.8h0.8l0.1 0.9q0.8 0.7 1.9 0.5 0.2 0 0.5 0 0.1-0.2 0.3-0.5 0.3-0.2 0.5-0.5-0.3-0.2-0.5-0.4-0.6-0.6-1.7-1 0.6 0 1.1-0.2 0.6 0 1.2-0.2-0.6 0-1-0.4-0.4-0.4-0.4-1z"/><path class="s" d="m86.7 106.3q0 0 0.1 0.1h1.4l0.5-0.3-1.2-0.4 1.3 0.1 0.9-0.9q0.1-0.7 0.2-1.6-0.2 0-0.6 0.1-2-0.1-3.9-0.8-0.2 2.1 1.3 3.7z"/><path class="t" d="m85.8 100.8h-0.4v1.8q1.9 0.7 3.9 0.8 0.4-0.1 0.7-0.1-0.2 0.9-0.3 1.6l-0.9 0.9-1.2-0.1 1.1 0.3-0.5 0.4q0 0.6 0.4 1 0.4 0.4 1 0.4l0.5-0.5q-0.3-0.2-0.3-0.5-0.1-0.5-0.2-0.9l1.2-0.5 1.6 0.5q0.3-0.1 0.6-0.2l-0.8-0.5q-0.3 0-0.5 0.1-0.6-0.1-1-0.8 1.6-1.7 1.3-4-0.1 0.3-0.2 0.6-0.2 0.7-0.3 1.2-0.3 0.1-0.5 0.3-0.2 0-0.3 0l-0.7-0.4q-0.5 0.2-1.2 0.2-1.3 0.5-2.6-0.2z"/><path class="u" d="m87.3 101.3l-0.4-1.2-1.1-0.3v1l0.4 1.4q1.3 0.7 2.6 0.2 0.7 0 1.3-0.2l0.6-0.9-0.2-1q-0.2-0.3-0.5-0.5-0.9 0-1.8 0l-0.1 1.3z"/><path class="v" d="m127.4 112.9q-0.7-0.3-1.5-0.8-2.2-0.9-4.6-1.1v0.5q0.6 2.2 0.5 4.6 0 0.6 0.4 0.9 1 1.1 1.3 2.7-1 1-2.3 1.8-0.9 0.7-1.6 1.5-1.7 1.6-3 3.4v0.5 0.5h1.5v-1q1.4-1.4 3-2.9 0.5-0.5 1-1.1 1.8-0.6 3.2-1.2 1.1-0.4 2.1-0.8z"/><path class="w" d="m127.4 111l-0.2-2.7-4 0.5v0.5q0 0.2 0 0.3 0.2 0.2 0.5 0.4 1.9-0.1 3.7 1z"/><path fill-rule="evenodd" class="x" d="m111.7 98.2q-0.1 0.7-0.2 1.4-0.1 0.3-0.2 0.6-0.5 2.3-1.2 4.5-0.4 1-0.7 2.1-0.3 0.9-0.4 1.9-0.1 0.5-0.1 1 0.1 0.1 0 0.2-0.5 0.4-1.1 0.7-0.2-0.1-0.4-0.2-0.3-0.1-0.7-0.1l-0.3-0.7q0.1-0.6 0.3-1.1 0.6-1.9 2-3.7 1.6-2.1 0.5-4.1l-0.1-0.1q0 0.8 0.1 1.6-0.9 1.3-1.5 2.6-1.1 2.2-2.7 3.9v0.5l-1.6-0.2q-0.5 0.6-1 1.4-1.1 1.7-2.8 2.8 0.1-0.4 0.4-0.8 1.1-1.6 2.2-3.2l-0.9-0.5q-0.1-0.1-0.1-0.2 0-0.2 0-0.3-2.1-1.5-4.6-1.5-2.1-0.4-4.2-0.3v-0.5q0.3-0.1 0.6-0.2l-0.8-0.5q-0.3 0-0.5 0-0.6 0-1-0.7 1.6-1.7 1.2-4 0 0.3-0.2 0.6-0.1 0.7-0.3 1.2-0.2 0.1-0.5 0.3-0.1 0-0.2 0l-0.7-0.4 0.7-0.9-0.2-1.1q-0.3-0.2-0.6-0.4-0.9 0-1.7 0 1.1-0.5 1.9-0.8 0.2-0.1 0.3-0.2 0.4-0.5-0.7-0.6-1.1-0.1-2.2-0.3l5.3 0.2 0.4-0.3q0.6-1.5 0.1-3-2.2-1.2-4.7-0.2-0.5 0.1-1 0.2-0.9 0.1-0.9-0.9 0-0.7 0.1-1.5 2.3-1.6 5-1.1v0.1q-0.6 0.1-1.3 0.3 1.2 0.2 2.5 0.5-0.1 0.1-0.3 0.3-0.6 0.4-1.4 0.8 1.2 0.5 2.4 0.4 0.8 0.2 1.5 0.6 0.4 0.3 0.8 0.8-0.1 0.1-0.2 0.2-0.2 0.2-0.4 0.4-0.2 0.1-0.4 0.3-0.4 0.7-0.3 1.7 0 0.3 0 0.6l0.8 0.4 0.2 0.7q1-0.3 2.1-0.7 1.5-0.2 3 0 0.9 0 1.7 0 0.2 0 0.6 0 2.3 0.2 4.5 0.9-0.4-1.7-1.8-2.8-0.6-0.6-1.2-1.2-0.4-0.3-0.8-0.7 4 0 7.4-2.5 0.5-0.2 0.8-0.5 0.2 3.1-0.3 6.3zm-11.7 1.2q-2.7 0.1-5.3 0.9v0.5q0.2 0.6-0.5 0.4-0.2 0-0.4 0-0.3 2.2 1.9 2.9 2.5 0.9 5-0.2 1.7-0.9 2.1-2.7l-0.6-0.9q-0.6-0.9-2.2-0.9zm3.2 6.7q0.3 0.6 1.2 0.2 1.7-0.5 2-2.3-1 0.3-1.7 0.1-0.3-0.1-0.5-0.1 0 0.2-0.1 0.5 0 0.2-0.1 0.4l-0.8 0.1q-0.1 0.3-0.1 0.7 0 0.2 0.1 0.4z"/><path class="y" d="m103.2 105q-0.1 0.3-0.1 0.8 0 0.1 0.1 0.3 0.3 0.6 1.3 0.2 1.6-0.5 1.9-2.3-0.9 0.3-1.7 0.1-0.3-0.1-0.5-0.1 0 0.2-0.1 0.5 0 0.2-0.1 0.4z"/><path class="z" d="m102.2 100.3q-0.6-0.9-2.2-0.9-2.7 0.1-5.3 0.9v0.5l0.7 0.5 0.3 1.3q0.2-0.1 0.4-0.1 0.3-0.1 0.6-0.2 0.2-0.2 0.3-0.3 0.1-0.3 0.1-0.5 0-0.6-0.1-1.2z"/><path class="A" d="m102.8 101.2l-0.6-0.9h-5.2q0.1 0.6 0.1 1.2 0 0.2-0.1 0.5-0.1 0.1-0.2 0.2-0.4 0.2-0.7 0.3-0.2 0-0.4 0.1l-0.3-1.3-0.6-0.5q0.1 0.6-0.5 0.4-0.3 0-0.5 0-0.3 2.2 1.9 2.9 2.6 0.9 5-0.2 1.7-0.9 2.1-2.7z"/><path fill-rule="evenodd" class="B" d="m103.8 94.9q0.4 0.4 0.8 0.7 0.6 0.6 1.2 1.2 1.4 1.1 1.8 2.8-2.2-0.7-4.5-0.9-0.3 0-0.6 0-0.8 0-1.7 0-1.5-0.2-3 0-1.1 0.4-2.1 0.7l-0.2-0.7-0.7-0.4q0-0.3-0.1-0.6-0.1-1 0.3-1.7 0.2-0.2 0.4-0.3 0.2-0.2 0.4-0.4 0.1-0.1 0.2-0.2-0.4-0.5-0.8-0.8-0.7-0.4-1.5-0.6-1.2 0.1-2.4-0.4 0.8-0.4 1.5-0.8 0.1-0.2 0.2-0.3-1.2-0.3-2.5-0.5 0.7-0.2 1.3-0.3v-0.1q-2.7-0.5-5 1.1 0 0.8 0 1.5 0 1 0.8 0.9 0.5-0.1 1-0.2 2.5-1 4.7 0.2 0.5 1.5-0.1 3l-0.4 0.3-5.3-0.2q1.1 0.2 2.2 0.3 1.1 0.1 0.8 0.6-0.2 0.1-0.4 0.2-0.8 0.3-1.9 0.8l-0.1 1.3-0.8 0.1-0.4-1.1-1.1-0.3v1h-0.4v1.8q-0.1 2.1 1.3 3.7 0.1 0 0.1 0.1h-1.4v2.8h-0.4q0.1 2 0 4-0.1 2 0.4 3.9 1 0.9 2.3 1.4 0.1-0.1 0.3 0 0.8-0.3 1-1.2 0.1-0.8 0.2-1.6 0.6 1.1 0.9 2.3 0.5 1.3 1.9 1.3 1.4-0.1 2.7-0.4l0.6 0.5h2.2q-0.1 0.2-0.2 0.1-1.5 0.5-3 0.4h-5.6v0.5q-1 1.2-1.9 2.5-1.2 1.9-2.3 4v0.5h-1.3q-0.4-2-0.4-3.8 0-1.8 0-3.7 0.1 1.5 0.7-3.8v-3.7q0.5-1.7 0.5-3.5-0.1-2.2 0.1-4.6 0.2-2.3 1.2-4.5 0.9-2.2 1-4.6 0.2-1.7-0.2-3.3-0.3-1.3-1.3-2.1-0.5-0.4-1.1-0.8-0.6-0.4-1.1-0.8v-0.5q1.5 0.6 2.9-0.3 0.7-0.5 1.2-1.3 0.9-1.8 1.5-3.5h34.1q0.3 1.8 1.2 3.3 1 1.8 1.3 3.9 0.3 2 0 4.2-0.1 1.5-0.6 2.6-1.1 2.4-0.9 5.1 0.1 2.2-0.5 4.2h-0.5q-0.1 0.8-0.1 1.4 0 0.7-0.1 1.4-0.1 0.5-0.2 1-0.2 0.8-1.1 0.9v0.9q-0.1 0.9-0.3 1.9-0.2 1-0.6 2-0.9 2.3-2.5 3.7-1.7 1.5-4 1.6-2.4-0.2-3.7-2.2l-0.4-0.6-1-0.3v0.4h-0.5q-0.2-0.1-0.2-0.4-0.4-1.2-0.4-2.5l-0.8 0.1v-0.9l1.8-2.8-0.4-0.9q0.6-0.3 1.1-0.7 0.1-0.1 0.1-0.2-0.1-0.5 0-1 0.1-1 0.4-1.9 0.3-1.1 0.7-2.1 0.7-2.2 1.2-4.5 0.1-0.3 0.2-0.6 0.1-0.7 0.2-1.4 0.5-3.2 0.3-6.3-0.3 0.3-0.7 0.5-3.5 2.5-7.5 2.5zm-21.1 24.5l0.1-0.4q0 0.5 0 0.9 0-0.2 0-0.5zm32.2-16.1q-0.6 2.3-2 4 0 1 0.1 1.9 0.1 1 0.8 1.3h0.9q0.8-0.5 1.4-1.3 2.3-2.8 2.3-6.6 0-1.4-1.3-1.6-1.7 0.6-2.2 2.3z"/><path fill-rule="evenodd" class="C" d="m116.3 109.3q-0.7 0.7-1.5 1.3l-0.9-0.1q-0.6-0.3-0.8-1.2-0.1-1-0.1-2 1.4-1.7 2-4 0.5-1.7 2.2-2.3 1.3 0.2 1.3 1.6 0 3.9-2.2 6.7zm0-4.2q-0.2 2.5-2.5 3.7 0.1 0.1 0.3 0.2 0.7 0.3 1.5-0.7 1.7-2.8 1.9-5.8l-0.8-0.2q-0.1 1.3-0.4 2.8z"/><path class="D" d="m117.5 102.5l-0.8-0.3q-0.2 1.4-0.4 2.9-0.2 2.5-2.5 3.6 0.1 0.2 0.3 0.3 0.7 0.3 1.5-0.8 1.7-2.7 1.9-5.7z"/></svg>